<?xml version="1.0" encoding="utf-8"?>
<!-- Generator: Adobe Illustrator 16.0.0, SVG Export Plug-In . SVG Version: 6.00 Build 0)  -->
<!DOCTYPE svg PUBLIC "-//W3C//DTD SVG 1.1//EN" "http://www.w3.org/Graphics/SVG/1.1/DTD/svg11.dtd">
<svg version="1.1" id="Capa_1" xmlns="http://www.w3.org/2000/svg" xmlns:xlink="http://www.w3.org/1999/xlink" x="0px" y="0px"
	 width="293.963px" height="172.979px" viewBox="0 0 293.963 172.979" enable-background="new 0 0 293.963 172.979"
	 xml:space="preserve">
<g>
	<g>
		<path fill="#486CA6" d="M285.497,141.362v8.219h-6.873c-1.836,0-3.575-0.339-5.201-1.023c-1.633-0.685-3.049-1.633-4.253-2.838
			s-2.16-2.604-2.866-4.215c-0.708-1.603-1.062-3.327-1.062-5.17v-8.204h-5.104v-7.843h5.104v-15.256h9.415v32.439
			c0,1.083,0.392,2.009,1.173,2.762c0.776,0.752,1.71,1.129,2.793,1.129H285.497z"/>
		<polygon fill="#72A0CC" points="284.556,120.295 284.556,128.16 279.317,128.16 274.921,120.295 		"/>
		<polygon fill="#72A0CC" points="258.062,120.257 258.062,128.123 252.041,128.123 251.972,128.123 247.652,120.257 		"/>
		<path fill="#486CA6" d="M258.062,100.003v8.287h-7.722c-1.228,0-2.168,0.473-2.83,1.414c-0.663,0.948-0.994,2.244-0.994,3.899
			v35.977H237.1v-21.458h-5.103v-7.866h5.103v-7.083c0-1.791,0.338-3.492,1.023-5.096c0.685-1.61,1.626-3.011,2.83-4.215
			c1.206-1.204,2.612-2.152,4.216-2.837c1.61-0.685,3.333-1.023,5.17-1.023H258.062z"/>
		<path fill="#486CA6" d="M229.219,124.789c0.964,2.22,1.453,4.584,1.453,7.083c0,2.506-0.488,4.869-1.453,7.082
			c-0.97,2.221-2.28,4.163-3.928,5.81c-1.657,1.656-3.591,2.966-5.811,3.93c-2.22,0.97-4.605,1.452-7.158,1.452
			c-2.544,0-4.93-0.482-7.15-1.452c-2.219-0.963-4.154-2.273-5.811-3.93c-1.648-1.647-2.958-3.589-3.928-5.81
			c-0.964-2.213-1.454-4.576-1.454-7.082c0-2.499,0.49-4.863,1.454-7.083c0.97-2.213,2.279-4.155,3.928-5.804
			c1.657-1.655,3.591-2.965,5.811-3.929c2.22-0.971,4.606-1.452,7.15-1.452c2.552,0,4.938,0.481,7.158,1.452
			c2.22,0.963,4.154,2.274,5.811,3.929C226.939,120.634,228.25,122.575,229.219,124.789z M220.829,131.66
			c0-1.317-0.227-2.582-0.678-3.786c-0.444-1.204-1.062-2.243-1.837-3.116c-0.782-0.873-1.677-1.573-2.695-2.092
			c-1.016-0.52-2.114-0.775-3.296-0.775c-1.175,0-2.289,0.255-3.327,0.775c-1.04,0.519-1.949,1.219-2.725,2.092
			c-0.782,0.873-1.392,1.913-1.844,3.116c-0.444,1.204-0.67,2.468-0.67,3.786c0,1.416,0.226,2.733,0.67,3.937
			c0.452,1.197,1.062,2.266,1.844,3.185c0.776,0.917,1.686,1.64,2.725,2.159c1.038,0.52,2.152,0.775,3.327,0.775
			c1.182,0,2.28-0.256,3.296-0.775c1.018-0.519,1.913-1.242,2.695-2.159c0.776-0.919,1.394-1.988,1.837-3.185
			C220.602,134.393,220.829,133.075,220.829,131.66z"/>
		<path fill="#486CA6" d="M192.303,134.708v0.21c0,2.266-0.46,4.343-1.385,6.232c-0.919,1.89-2.19,3.508-3.824,4.854
			c-1.625,1.348-3.538,2.386-5.736,3.117c-2.198,0.729-4.591,1.098-7.187,1.098c-2.41,0-4.712-0.293-6.911-0.88
			c-2.188-0.587-4.184-1.362-5.983-2.318c-1.791-0.963-3.365-2.054-4.711-3.266c-1.339-1.219-2.372-2.491-3.079-3.808l8.287-5.239
			c0.895,0.994,1.792,1.875,2.694,2.656c0.896,0.775,1.836,1.438,2.83,1.98s2.077,0.956,3.259,1.242
			c1.182,0.278,2.477,0.421,3.898,0.421c0.895,0,1.799-0.09,2.725-0.278c0.917-0.188,1.754-0.497,2.514-0.926
			c0.753-0.421,1.37-0.956,1.836-1.595c0.475-0.64,0.715-1.43,0.715-2.378c0-0.664-0.165-1.295-0.497-1.913
			c-0.331-0.617-0.896-1.219-1.701-1.814c-0.804-0.586-1.889-1.151-3.26-1.701c-1.368-0.542-3.093-1.076-5.17-1.595
			c-2.552-0.618-4.839-1.31-6.873-2.093c-2.031-0.783-3.747-1.724-5.17-2.838c-1.416-1.113-2.499-2.446-3.259-4.011
			c-0.752-1.558-1.129-3.402-1.129-5.532c0-2.318,0.437-4.411,1.31-6.277c0.873-1.867,2.092-3.44,3.65-4.718
			c1.558-1.281,3.387-2.258,5.487-2.943c2.099-0.685,4.357-1.032,6.765-1.032c2.499,0,4.764,0.287,6.797,0.852
			c2.032,0.564,3.845,1.287,5.457,2.16c1.603,0.873,3.011,1.867,4.207,2.974c1.204,1.114,2.213,2.19,3.011,3.221l-8.144,5.247
			c-2.032-1.935-3.952-3.297-5.773-4.072c-1.814-0.784-3.718-1.175-5.698-1.175c-1.226,0-2.28,0.159-3.153,0.467
			c-0.873,0.309-1.597,0.685-2.161,1.129c-0.564,0.452-1.001,0.956-1.308,1.528c-0.309,0.564-0.46,1.106-0.46,1.625
			c0,0.948,0.248,1.761,0.745,2.446c0.49,0.685,1.228,1.31,2.19,1.875c0.972,0.564,2.175,1.083,3.613,1.557
			c1.438,0.474,3.078,0.949,4.922,1.415c2.265,0.618,4.358,1.303,6.27,2.055c1.913,0.76,3.568,1.679,4.959,2.762
			c1.393,1.091,2.478,2.387,3.259,3.899C191.91,130.839,192.303,132.631,192.303,134.708z"/>
		<rect x="142.146" y="114.168" fill="#486CA6" width="9.709" height="35.623"/>
		<path fill="#486CA6" d="M141.882,146.819v0.067c-2.454,2.176-5.501,3.259-9.137,3.259c-5.758,0-9.845-1.558-12.254-4.674
			c-2.22-2.785-3.326-7.226-3.326-13.314v-17.988h9.701v17.988c0,1.272,0.038,2.506,0.106,3.681c0.075,1.182,0.331,2.22,0.783,3.116
			c0.444,0.904,1.144,1.618,2.084,2.16c0.948,0.55,2.295,0.82,4.042,0.82c0.798,0,1.58-0.121,2.333-0.354
			c0.761-0.241,1.468-0.542,2.13-0.925h0.136L141.882,146.819z"/>
		<path fill="#486CA6" d="M114.034,124.864c0.964,2.22,1.453,4.576,1.453,7.083c0,2.499-0.489,4.861-1.453,7.083
			c-0.971,2.22-2.281,4.154-3.929,5.811c-1.656,1.648-3.59,2.95-5.81,3.891c-2.221,0.949-4.584,1.415-7.083,1.415
			c-4.862,0-8.573-1.791-11.124-5.382v4.818H76.74v-49.578h9.423v31.943c0,1.37,0.256,2.642,0.775,3.824
			c0.52,1.182,1.22,2.205,2.093,3.078c0.873,0.88,1.912,1.573,3.115,2.092c1.205,0.52,2.492,0.775,3.861,0.775
			c1.317,0,2.583-0.256,3.787-0.775c1.203-0.519,2.243-1.211,3.115-2.092c0.873-0.873,1.574-1.896,2.093-3.078
			c0.52-1.182,0.775-2.454,0.775-3.824s-0.256-2.642-0.775-3.823c-0.519-1.183-1.22-2.221-2.093-3.117
			c-0.873-0.896-1.912-1.595-3.115-2.092c-1.204-0.497-2.469-0.745-3.787-0.745c-1.271,0-2.551,0.264-3.823,0.783l-0.075,0.068
			l-0.068-0.144l-3.47-6.375l0.067-0.067c2.318-1.792,5.171-2.695,8.573-2.695c2.499,0,4.862,0.474,7.083,1.422
			c2.22,0.94,4.154,2.243,5.81,3.891C111.753,120.709,113.063,122.643,114.034,124.864z"/>
		<path fill="#486CA6" d="M74.798,114.168v35.413h-9.28v-17.755c0-1.37-0.263-2.649-0.783-3.831c-0.52-1.182-1.234-2.229-2.16-3.124
			c-0.918-0.902-1.979-1.595-3.184-2.091c-1.205-0.497-2.469-0.752-3.786-0.752c-1.37,0-2.649,0.263-3.831,0.782
			c-1.174,0.527-2.228,1.227-3.146,2.101c-0.926,0.873-1.641,1.918-2.16,3.124c-0.526,1.212-0.783,2.506-0.783,3.875
			c0,1.333,0.256,2.589,0.783,3.771c0.519,1.182,1.234,2.229,2.16,3.124c0.918,0.903,1.972,1.611,3.146,2.137
			c1.182,0.52,2.461,0.775,3.831,0.775c1.46,0,2.709-0.256,3.749-0.775h0.075v0.143l3.538,6.3l-0.069,0.075
			c-2.317,1.792-5.17,2.687-8.572,2.687c-2.498,0-4.862-0.466-7.082-1.415c-2.221-0.94-4.155-2.242-5.804-3.891
			c-1.655-1.656-2.965-3.59-3.936-5.811c-0.963-2.221-1.453-4.583-1.453-7.083c0-2.552,0.49-4.938,1.453-7.158
			c0.971-2.213,2.281-4.155,3.936-5.804c1.648-1.655,3.583-2.965,5.804-3.929c2.219-0.971,4.583-1.452,7.082-1.452
			c2.455,0,4.606,0.451,6.451,1.37c1.837,0.911,3.417,2.236,4.742,3.967v-4.772H74.798z"/>
		<path fill="#486CA6" d="M34.019,116.08v16.995c0,2.266-0.437,4.396-1.31,6.375c-0.873,1.987-2.055,3.733-3.545,5.246
			c-1.482,1.513-3.243,2.702-5.276,3.576c-2.032,0.873-4.199,1.31-6.51,1.31H6.186v-9.845h11.192c0.94,0,1.813-0.181,2.619-0.535
			c0.798-0.353,1.505-0.835,2.123-1.444c0.61-0.617,1.084-1.326,1.416-2.13c0.331-0.797,0.496-1.648,0.496-2.551v-22.452
			L34.019,116.08z"/>
		<polygon fill="#72A0CC" points="34.019,100.003 34.019,109.208 14.751,109.208 9.867,100.003 		"/>
	</g>
	<g>
		<path fill="#486CA6" d="M97.006,167.903c-0.43,0.357-1.022,0.535-1.774,0.535c-0.269,0-0.513-0.019-0.731-0.056
			c-0.219-0.037-0.423-0.094-0.615-0.171c-0.191-0.077-0.373-0.176-0.544-0.297s-0.338-0.262-0.499-0.423l0.383-0.383
			c0.161,0.162,0.317,0.296,0.469,0.403c0.151,0.108,0.308,0.195,0.469,0.262c0.161,0.067,0.331,0.114,0.509,0.141
			c0.178,0.027,0.375,0.041,0.59,0.041c0.571,0,1.021-0.129,1.351-0.388c0.329-0.259,0.494-0.624,0.494-1.094
			c0-0.437-0.131-0.772-0.393-1.008c-0.067-0.054-0.131-0.101-0.191-0.141c-0.061-0.041-0.129-0.074-0.207-0.101
			c-0.077-0.027-0.166-0.052-0.267-0.076c-0.101-0.023-0.225-0.045-0.373-0.065l-0.837-0.131c-0.544-0.081-0.971-0.255-1.28-0.524
			c-0.376-0.316-0.564-0.756-0.564-1.321c0-0.605,0.198-1.084,0.595-1.437c0.396-0.353,0.941-0.529,1.633-0.529
			c0.444,0,0.822,0.061,1.134,0.183s0.624,0.316,0.933,0.584l-0.353,0.353c-0.114-0.101-0.229-0.191-0.343-0.272
			s-0.238-0.149-0.373-0.207c-0.134-0.057-0.286-0.103-0.454-0.136s-0.359-0.05-0.575-0.05c-0.524,0-0.933,0.133-1.225,0.398
			c-0.292,0.266-0.438,0.628-0.438,1.085c0,0.417,0.125,0.73,0.373,0.939c0.127,0.107,0.288,0.2,0.479,0.277
			c0.191,0.078,0.388,0.133,0.59,0.167l0.776,0.122c0.168,0.027,0.316,0.054,0.443,0.081c0.128,0.027,0.24,0.059,0.338,0.096
			c0.097,0.037,0.187,0.081,0.267,0.131c0.081,0.051,0.158,0.106,0.232,0.167c0.195,0.162,0.348,0.362,0.459,0.601
			s0.166,0.503,0.166,0.792C97.651,167.062,97.437,167.546,97.006,167.903z"/>
		<path fill="#486CA6" d="M106.554,165.837c-0.007,0.295-0.032,0.554-0.076,0.776c-0.044,0.222-0.111,0.418-0.202,0.589
			s-0.217,0.338-0.378,0.5c-0.235,0.235-0.508,0.417-0.817,0.544c-0.309,0.127-0.635,0.191-0.978,0.191s-0.669-0.064-0.978-0.191
			c-0.309-0.128-0.581-0.309-0.816-0.544c-0.161-0.162-0.288-0.328-0.378-0.5c-0.091-0.171-0.158-0.368-0.202-0.589
			c-0.044-0.222-0.069-0.481-0.076-0.776c-0.007-0.296-0.01-0.646-0.01-1.049s0.003-0.751,0.01-1.043
			c0.006-0.292,0.032-0.549,0.076-0.771c0.043-0.222,0.111-0.42,0.202-0.595c0.09-0.175,0.217-0.343,0.378-0.504
			c0.235-0.235,0.507-0.417,0.816-0.544c0.309-0.128,0.635-0.192,0.978-0.192s0.669,0.064,0.978,0.192
			c0.309,0.127,0.582,0.309,0.817,0.544c0.161,0.161,0.287,0.329,0.378,0.504s0.158,0.373,0.202,0.595
			c0.043,0.222,0.069,0.479,0.076,0.771s0.01,0.64,0.01,1.043S106.561,165.541,106.554,165.837z M106.005,163.805
			c-0.01-0.272-0.034-0.507-0.071-0.706s-0.092-0.37-0.167-0.515c-0.074-0.144-0.175-0.28-0.302-0.408
			c-0.182-0.181-0.39-0.319-0.625-0.413c-0.235-0.094-0.481-0.141-0.736-0.141s-0.5,0.047-0.736,0.141s-0.443,0.232-0.625,0.413
			c-0.128,0.128-0.229,0.264-0.303,0.408c-0.074,0.145-0.129,0.316-0.166,0.515c-0.037,0.198-0.061,0.433-0.071,0.706
			c-0.01,0.272-0.015,0.6-0.015,0.983c0,0.383,0.005,0.711,0.015,0.983c0.01,0.272,0.034,0.508,0.071,0.706
			c0.037,0.198,0.092,0.37,0.166,0.514c0.074,0.145,0.175,0.281,0.303,0.408c0.182,0.182,0.39,0.319,0.625,0.414
			s0.48,0.141,0.736,0.141s0.501-0.047,0.736-0.141c0.235-0.094,0.443-0.232,0.625-0.414c0.127-0.127,0.229-0.264,0.302-0.408
			c0.074-0.145,0.129-0.316,0.167-0.514s0.061-0.434,0.071-0.706c0.01-0.272,0.015-0.6,0.015-0.983
			C106.02,164.405,106.015,164.077,106.005,163.805z"/>
		<path fill="#486CA6" d="M111.07,168.377v-7.179h0.544v6.695h3.811v0.484H111.07z"/>
		<path fill="#486CA6" d="M124.046,167.011c-0.121,0.292-0.291,0.544-0.509,0.756c-0.219,0.211-0.478,0.376-0.776,0.494
			c-0.299,0.117-0.63,0.176-0.993,0.176s-0.694-0.059-0.993-0.176c-0.299-0.118-0.558-0.283-0.776-0.494
			c-0.218-0.212-0.388-0.464-0.509-0.756c-0.121-0.292-0.182-0.613-0.182-0.963v-4.85h0.544v4.779c0,0.296,0.045,0.566,0.136,0.812
			c0.09,0.246,0.22,0.454,0.388,0.625c0.168,0.171,0.369,0.304,0.604,0.398s0.498,0.141,0.787,0.141s0.551-0.047,0.787-0.141
			c0.235-0.094,0.437-0.227,0.605-0.398c0.167-0.171,0.297-0.379,0.388-0.625c0.09-0.245,0.136-0.516,0.136-0.812v-4.779h0.544v4.85
			C124.228,166.398,124.167,166.719,124.046,167.011z"/>
		<path fill="#486CA6" d="M133.231,167.213c-0.141,0.259-0.318,0.479-0.529,0.661c-0.212,0.181-0.454,0.321-0.726,0.418
			c-0.272,0.098-0.566,0.146-0.882,0.146c-0.343,0-0.669-0.064-0.978-0.191c-0.309-0.128-0.581-0.309-0.816-0.544
			c-0.161-0.162-0.288-0.328-0.378-0.5c-0.091-0.171-0.158-0.368-0.202-0.589c-0.044-0.222-0.069-0.481-0.076-0.776
			c-0.007-0.296-0.01-0.646-0.01-1.049s0.003-0.751,0.01-1.043c0.006-0.292,0.032-0.549,0.076-0.771
			c0.043-0.222,0.111-0.42,0.202-0.595c0.09-0.175,0.217-0.343,0.378-0.504c0.235-0.235,0.507-0.417,0.816-0.544
			c0.309-0.128,0.635-0.192,0.978-0.192c0.323,0,0.62,0.049,0.893,0.146c0.272,0.098,0.512,0.237,0.721,0.418
			c0.208,0.181,0.383,0.401,0.524,0.66s0.242,0.55,0.302,0.872h-0.554c-0.108-0.497-0.328-0.891-0.661-1.18
			c-0.333-0.289-0.741-0.433-1.225-0.433c-0.255,0-0.5,0.047-0.736,0.141s-0.443,0.232-0.625,0.413
			c-0.128,0.128-0.229,0.264-0.303,0.408c-0.074,0.145-0.129,0.316-0.166,0.515c-0.037,0.198-0.061,0.433-0.071,0.706
			c-0.01,0.272-0.015,0.6-0.015,0.983c0,0.383,0.005,0.711,0.015,0.983c0.01,0.272,0.034,0.508,0.071,0.706
			c0.037,0.198,0.092,0.37,0.166,0.514c0.074,0.145,0.175,0.281,0.303,0.408c0.182,0.182,0.39,0.319,0.625,0.414
			s0.48,0.141,0.736,0.141c0.484,0,0.896-0.145,1.235-0.434s0.563-0.682,0.67-1.18h0.534
			C133.473,166.664,133.372,166.954,133.231,167.213z"/>
		<path fill="#486CA6" d="M137.979,168.377v-7.179h0.544v7.179H137.979z"/>
		<path fill="#486CA6" d="M147.94,165.837c-0.007,0.295-0.032,0.554-0.076,0.776c-0.044,0.222-0.111,0.418-0.202,0.589
			s-0.217,0.338-0.378,0.5c-0.235,0.235-0.508,0.417-0.817,0.544c-0.309,0.127-0.635,0.191-0.978,0.191s-0.669-0.064-0.978-0.191
			c-0.309-0.128-0.581-0.309-0.816-0.544c-0.161-0.162-0.288-0.328-0.378-0.5c-0.091-0.171-0.158-0.368-0.202-0.589
			c-0.044-0.222-0.069-0.481-0.076-0.776c-0.007-0.296-0.01-0.646-0.01-1.049s0.003-0.751,0.01-1.043
			c0.006-0.292,0.032-0.549,0.076-0.771c0.043-0.222,0.111-0.42,0.202-0.595c0.09-0.175,0.217-0.343,0.378-0.504
			c0.235-0.235,0.507-0.417,0.816-0.544c0.309-0.128,0.635-0.192,0.978-0.192s0.669,0.064,0.978,0.192
			c0.309,0.127,0.582,0.309,0.817,0.544c0.161,0.161,0.287,0.329,0.378,0.504s0.158,0.373,0.202,0.595
			c0.043,0.222,0.069,0.479,0.076,0.771s0.01,0.64,0.01,1.043S147.947,165.541,147.94,165.837z M147.391,163.805
			c-0.01-0.272-0.034-0.507-0.071-0.706s-0.092-0.37-0.167-0.515c-0.074-0.144-0.175-0.28-0.302-0.408
			c-0.182-0.181-0.39-0.319-0.625-0.413c-0.235-0.094-0.481-0.141-0.736-0.141s-0.5,0.047-0.736,0.141s-0.443,0.232-0.625,0.413
			c-0.128,0.128-0.229,0.264-0.303,0.408c-0.074,0.145-0.129,0.316-0.166,0.515c-0.037,0.198-0.061,0.433-0.071,0.706
			c-0.01,0.272-0.015,0.6-0.015,0.983c0,0.383,0.005,0.711,0.015,0.983c0.01,0.272,0.034,0.508,0.071,0.706
			c0.037,0.198,0.092,0.37,0.166,0.514c0.074,0.145,0.175,0.281,0.303,0.408c0.182,0.182,0.39,0.319,0.625,0.414
			s0.48,0.141,0.736,0.141s0.501-0.047,0.736-0.141c0.235-0.094,0.443-0.232,0.625-0.414c0.127-0.127,0.229-0.264,0.302-0.408
			c0.074-0.145,0.129-0.316,0.167-0.514s0.061-0.434,0.071-0.706c0.01-0.272,0.015-0.6,0.015-0.983
			C147.406,164.405,147.401,164.077,147.391,163.805z"/>
		<path fill="#486CA6" d="M157.146,168.377l-4.144-6.241v6.241h-0.544v-7.179h0.544l4.144,6.221v-6.221h0.544v7.179H157.146z"/>
		<path fill="#486CA6" d="M162.479,168.377v-7.179h4.355v0.484h-3.811v2.833h3.247V165h-3.247v2.894h3.811v0.484H162.479z"/>
		<path fill="#486CA6" d="M174.648,167.903c-0.43,0.357-1.022,0.535-1.774,0.535c-0.269,0-0.513-0.019-0.731-0.056
			c-0.219-0.037-0.423-0.094-0.615-0.171c-0.191-0.077-0.373-0.176-0.544-0.297s-0.338-0.262-0.499-0.423l0.383-0.383
			c0.161,0.162,0.317,0.296,0.469,0.403c0.151,0.108,0.308,0.195,0.469,0.262c0.161,0.067,0.331,0.114,0.509,0.141
			c0.178,0.027,0.375,0.041,0.59,0.041c0.571,0,1.021-0.129,1.351-0.388c0.329-0.259,0.494-0.624,0.494-1.094
			c0-0.437-0.131-0.772-0.393-1.008c-0.067-0.054-0.131-0.101-0.191-0.141c-0.061-0.041-0.129-0.074-0.207-0.101
			c-0.077-0.027-0.166-0.052-0.267-0.076c-0.101-0.023-0.225-0.045-0.373-0.065l-0.837-0.131c-0.544-0.081-0.971-0.255-1.28-0.524
			c-0.376-0.316-0.564-0.756-0.564-1.321c0-0.605,0.198-1.084,0.595-1.437c0.396-0.353,0.941-0.529,1.633-0.529
			c0.444,0,0.822,0.061,1.134,0.183s0.624,0.316,0.933,0.584l-0.353,0.353c-0.114-0.101-0.229-0.191-0.343-0.272
			s-0.238-0.149-0.373-0.207c-0.134-0.057-0.286-0.103-0.454-0.136s-0.359-0.05-0.575-0.05c-0.524,0-0.933,0.133-1.225,0.398
			c-0.292,0.266-0.438,0.628-0.438,1.085c0,0.417,0.125,0.73,0.373,0.939c0.127,0.107,0.288,0.2,0.479,0.277
			c0.191,0.078,0.388,0.133,0.59,0.167l0.776,0.122c0.168,0.027,0.316,0.054,0.443,0.081c0.128,0.027,0.24,0.059,0.338,0.096
			c0.097,0.037,0.187,0.081,0.267,0.131c0.081,0.051,0.158,0.106,0.232,0.167c0.195,0.162,0.348,0.362,0.459,0.601
			s0.166,0.503,0.166,0.792C175.293,167.062,175.078,167.546,174.648,167.903z"/>
		<path fill="#486CA6" d="M189.156,161.683v6.695h-0.544v-6.695h-2.138v-0.484h4.83v0.484H189.156z"/>
		<path fill="#486CA6" d="M195.285,168.377v-7.179h4.355v0.484h-3.811v2.833h3.247V165h-3.247v2.894h3.811v0.484H195.285z"/>
		<path fill="#486CA6" d="M208.201,167.213c-0.141,0.259-0.318,0.479-0.529,0.661c-0.212,0.181-0.454,0.321-0.726,0.418
			c-0.272,0.098-0.566,0.146-0.882,0.146c-0.343,0-0.669-0.064-0.978-0.191c-0.309-0.128-0.581-0.309-0.816-0.544
			c-0.161-0.162-0.288-0.328-0.378-0.5c-0.091-0.171-0.158-0.368-0.202-0.589c-0.044-0.222-0.069-0.481-0.076-0.776
			c-0.007-0.296-0.01-0.646-0.01-1.049s0.003-0.751,0.01-1.043c0.006-0.292,0.032-0.549,0.076-0.771
			c0.043-0.222,0.111-0.42,0.202-0.595c0.09-0.175,0.217-0.343,0.378-0.504c0.235-0.235,0.507-0.417,0.816-0.544
			c0.309-0.128,0.635-0.192,0.978-0.192c0.323,0,0.62,0.049,0.893,0.146c0.272,0.098,0.512,0.237,0.721,0.418
			c0.208,0.181,0.383,0.401,0.524,0.66s0.242,0.55,0.302,0.872h-0.554c-0.108-0.497-0.328-0.891-0.661-1.18
			c-0.333-0.289-0.741-0.433-1.225-0.433c-0.255,0-0.5,0.047-0.736,0.141s-0.443,0.232-0.625,0.413
			c-0.128,0.128-0.229,0.264-0.303,0.408c-0.074,0.145-0.129,0.316-0.166,0.515c-0.037,0.198-0.061,0.433-0.071,0.706
			c-0.01,0.272-0.015,0.6-0.015,0.983c0,0.383,0.005,0.711,0.015,0.983c0.01,0.272,0.034,0.508,0.071,0.706
			c0.037,0.198,0.092,0.37,0.166,0.514c0.074,0.145,0.175,0.281,0.303,0.408c0.182,0.182,0.39,0.319,0.625,0.414
			s0.48,0.141,0.736,0.141c0.484,0,0.896-0.145,1.235-0.434s0.563-0.682,0.67-1.18h0.534
			C208.442,166.664,208.342,166.954,208.201,167.213z"/>
		<path fill="#486CA6" d="M217.638,168.377l-4.144-6.241v6.241h-0.544v-7.179h0.544l4.144,6.221v-6.221h0.544v7.179H217.638z"/>
		<path fill="#486CA6" d="M227.599,165.837c-0.007,0.295-0.032,0.554-0.076,0.776c-0.044,0.222-0.111,0.418-0.202,0.589
			s-0.217,0.338-0.378,0.5c-0.235,0.235-0.508,0.417-0.817,0.544c-0.309,0.127-0.635,0.191-0.978,0.191s-0.669-0.064-0.978-0.191
			c-0.309-0.128-0.581-0.309-0.816-0.544c-0.161-0.162-0.288-0.328-0.378-0.5c-0.091-0.171-0.158-0.368-0.202-0.589
			c-0.044-0.222-0.069-0.481-0.076-0.776c-0.007-0.296-0.01-0.646-0.01-1.049s0.003-0.751,0.01-1.043
			c0.006-0.292,0.032-0.549,0.076-0.771c0.043-0.222,0.111-0.42,0.202-0.595c0.09-0.175,0.217-0.343,0.378-0.504
			c0.235-0.235,0.507-0.417,0.816-0.544c0.309-0.128,0.635-0.192,0.978-0.192s0.669,0.064,0.978,0.192
			c0.309,0.127,0.582,0.309,0.817,0.544c0.161,0.161,0.287,0.329,0.378,0.504s0.158,0.373,0.202,0.595
			c0.043,0.222,0.069,0.479,0.076,0.771s0.01,0.64,0.01,1.043S227.605,165.541,227.599,165.837z M227.049,163.805
			c-0.01-0.272-0.034-0.507-0.071-0.706s-0.092-0.37-0.167-0.515c-0.074-0.144-0.175-0.28-0.302-0.408
			c-0.182-0.181-0.39-0.319-0.625-0.413c-0.235-0.094-0.481-0.141-0.736-0.141s-0.5,0.047-0.736,0.141s-0.443,0.232-0.625,0.413
			c-0.128,0.128-0.229,0.264-0.303,0.408c-0.074,0.145-0.129,0.316-0.166,0.515c-0.037,0.198-0.061,0.433-0.071,0.706
			c-0.01,0.272-0.015,0.6-0.015,0.983c0,0.383,0.005,0.711,0.015,0.983c0.01,0.272,0.034,0.508,0.071,0.706
			c0.037,0.198,0.092,0.37,0.166,0.514c0.074,0.145,0.175,0.281,0.303,0.408c0.182,0.182,0.39,0.319,0.625,0.414
			s0.48,0.141,0.736,0.141s0.501-0.047,0.736-0.141c0.235-0.094,0.443-0.232,0.625-0.414c0.127-0.127,0.229-0.264,0.302-0.408
			c0.074-0.145,0.129-0.316,0.167-0.514s0.061-0.434,0.071-0.706c0.01-0.272,0.015-0.6,0.015-0.983
			C227.064,164.405,227.059,164.077,227.049,163.805z"/>
		<path fill="#486CA6" d="M232.115,168.377v-7.179h0.544v6.695h3.811v0.484H232.115z"/>
		<path fill="#486CA6" d="M245.081,165.837c-0.007,0.295-0.032,0.554-0.076,0.776c-0.044,0.222-0.111,0.418-0.202,0.589
			s-0.217,0.338-0.378,0.5c-0.235,0.235-0.508,0.417-0.817,0.544c-0.309,0.127-0.635,0.191-0.978,0.191s-0.669-0.064-0.978-0.191
			c-0.309-0.128-0.581-0.309-0.816-0.544c-0.161-0.162-0.288-0.328-0.378-0.5c-0.091-0.171-0.158-0.368-0.202-0.589
			c-0.044-0.222-0.069-0.481-0.076-0.776c-0.007-0.296-0.01-0.646-0.01-1.049s0.003-0.751,0.01-1.043
			c0.006-0.292,0.032-0.549,0.076-0.771c0.043-0.222,0.111-0.42,0.202-0.595c0.09-0.175,0.217-0.343,0.378-0.504
			c0.235-0.235,0.507-0.417,0.816-0.544c0.309-0.128,0.635-0.192,0.978-0.192s0.669,0.064,0.978,0.192
			c0.309,0.127,0.582,0.309,0.817,0.544c0.161,0.161,0.287,0.329,0.378,0.504s0.158,0.373,0.202,0.595
			c0.043,0.222,0.069,0.479,0.076,0.771s0.01,0.64,0.01,1.043S245.088,165.541,245.081,165.837z M244.532,163.805
			c-0.01-0.272-0.034-0.507-0.071-0.706s-0.092-0.37-0.167-0.515c-0.074-0.144-0.175-0.28-0.302-0.408
			c-0.182-0.181-0.39-0.319-0.625-0.413c-0.235-0.094-0.481-0.141-0.736-0.141s-0.5,0.047-0.736,0.141s-0.443,0.232-0.625,0.413
			c-0.128,0.128-0.229,0.264-0.303,0.408c-0.074,0.145-0.129,0.316-0.166,0.515c-0.037,0.198-0.061,0.433-0.071,0.706
			c-0.01,0.272-0.015,0.6-0.015,0.983c0,0.383,0.005,0.711,0.015,0.983c0.01,0.272,0.034,0.508,0.071,0.706
			c0.037,0.198,0.092,0.37,0.166,0.514c0.074,0.145,0.175,0.281,0.303,0.408c0.182,0.182,0.39,0.319,0.625,0.414
			s0.48,0.141,0.736,0.141s0.501-0.047,0.736-0.141c0.235-0.094,0.443-0.232,0.625-0.414c0.127-0.127,0.229-0.264,0.302-0.408
			c0.074-0.145,0.129-0.316,0.167-0.514s0.061-0.434,0.071-0.706c0.01-0.272,0.015-0.6,0.015-0.983
			C244.547,164.405,244.542,164.077,244.532,163.805z M242.742,160.513h-0.585l0.978-1.482h0.675L242.742,160.513z"/>
		<path fill="#486CA6" d="M254.114,166.855c-0.087,0.276-0.239,0.528-0.454,0.756c-0.235,0.262-0.518,0.465-0.847,0.61
			s-0.675,0.217-1.039,0.217c-0.343,0-0.669-0.064-0.978-0.191c-0.309-0.128-0.581-0.309-0.816-0.544
			c-0.161-0.162-0.288-0.328-0.378-0.5c-0.091-0.171-0.158-0.368-0.202-0.589c-0.044-0.222-0.069-0.481-0.076-0.776
			c-0.007-0.296-0.01-0.646-0.01-1.049s0.003-0.751,0.01-1.043c0.006-0.292,0.032-0.549,0.076-0.771
			c0.043-0.222,0.111-0.42,0.202-0.595c0.09-0.175,0.217-0.343,0.378-0.504c0.235-0.235,0.507-0.417,0.816-0.544
			c0.309-0.128,0.635-0.192,0.978-0.192c0.316,0,0.61,0.051,0.882,0.151c0.272,0.101,0.516,0.242,0.731,0.423
			c0.215,0.182,0.395,0.402,0.54,0.661s0.244,0.546,0.297,0.862h-0.544c-0.107-0.497-0.331-0.891-0.67-1.18
			c-0.339-0.289-0.751-0.433-1.235-0.433c-0.255,0-0.5,0.047-0.736,0.141s-0.443,0.232-0.625,0.413
			c-0.128,0.128-0.229,0.264-0.303,0.408c-0.074,0.145-0.129,0.316-0.166,0.515c-0.037,0.198-0.061,0.433-0.071,0.706
			c-0.01,0.272-0.015,0.6-0.015,0.983c0,0.383,0.005,0.711,0.015,0.983c0.01,0.272,0.034,0.508,0.071,0.706
			c0.037,0.198,0.092,0.37,0.166,0.514c0.074,0.145,0.175,0.281,0.303,0.408c0.182,0.182,0.39,0.319,0.625,0.414
			s0.48,0.141,0.736,0.141c0.283,0,0.555-0.059,0.817-0.177c0.262-0.117,0.487-0.291,0.675-0.519
			c0.155-0.195,0.266-0.403,0.333-0.625c0.067-0.222,0.101-0.487,0.101-0.796v-0.646h-1.926v-0.484h2.47v1.169
			C254.245,166.253,254.202,166.58,254.114,166.855z"/>
		<path fill="#486CA6" d="M258.731,168.377v-7.179h0.544v7.179H258.731z"/>
		<path fill="#486CA6" d="M268.38,167.213c-0.141,0.259-0.318,0.479-0.529,0.661c-0.212,0.181-0.454,0.321-0.726,0.418
			c-0.272,0.098-0.566,0.146-0.882,0.146c-0.343,0-0.669-0.064-0.978-0.191c-0.309-0.128-0.581-0.309-0.816-0.544
			c-0.161-0.162-0.288-0.328-0.378-0.5c-0.091-0.171-0.158-0.368-0.202-0.589c-0.044-0.222-0.069-0.481-0.076-0.776
			c-0.007-0.296-0.01-0.646-0.01-1.049s0.003-0.751,0.01-1.043c0.006-0.292,0.032-0.549,0.076-0.771
			c0.043-0.222,0.111-0.42,0.202-0.595c0.09-0.175,0.217-0.343,0.378-0.504c0.235-0.235,0.507-0.417,0.816-0.544
			c0.309-0.128,0.635-0.192,0.978-0.192c0.323,0,0.62,0.049,0.893,0.146c0.272,0.098,0.512,0.237,0.721,0.418
			c0.208,0.181,0.383,0.401,0.524,0.66s0.242,0.55,0.302,0.872h-0.554c-0.108-0.497-0.328-0.891-0.661-1.18
			c-0.333-0.289-0.741-0.433-1.225-0.433c-0.255,0-0.5,0.047-0.736,0.141s-0.443,0.232-0.625,0.413
			c-0.128,0.128-0.229,0.264-0.303,0.408c-0.074,0.145-0.129,0.316-0.166,0.515c-0.037,0.198-0.061,0.433-0.071,0.706
			c-0.01,0.272-0.015,0.6-0.015,0.983c0,0.383,0.005,0.711,0.015,0.983c0.01,0.272,0.034,0.508,0.071,0.706
			c0.037,0.198,0.092,0.37,0.166,0.514c0.074,0.145,0.175,0.281,0.303,0.408c0.182,0.182,0.39,0.319,0.625,0.414
			s0.48,0.141,0.736,0.141c0.484,0,0.896-0.145,1.235-0.434s0.563-0.682,0.67-1.18h0.534
			C268.622,166.664,268.521,166.954,268.38,167.213z"/>
		<path fill="#486CA6" d="M277.353,168.377l-0.625-1.744h-3.347l-0.625,1.744h-0.584l2.642-7.179h0.484l2.642,7.179H277.353z
			 M275.054,161.925l-1.502,4.225h3.004L275.054,161.925z"/>
		<path fill="#486CA6" d="M285.338,167.903c-0.43,0.357-1.022,0.535-1.774,0.535c-0.269,0-0.513-0.019-0.731-0.056
			c-0.219-0.037-0.423-0.094-0.615-0.171c-0.191-0.077-0.373-0.176-0.544-0.297s-0.338-0.262-0.499-0.423l0.383-0.383
			c0.161,0.162,0.317,0.296,0.469,0.403c0.151,0.108,0.308,0.195,0.469,0.262c0.161,0.067,0.331,0.114,0.509,0.141
			c0.178,0.027,0.375,0.041,0.59,0.041c0.571,0,1.021-0.129,1.351-0.388c0.329-0.259,0.494-0.624,0.494-1.094
			c0-0.437-0.131-0.772-0.393-1.008c-0.067-0.054-0.131-0.101-0.191-0.141c-0.061-0.041-0.129-0.074-0.207-0.101
			c-0.077-0.027-0.166-0.052-0.267-0.076c-0.101-0.023-0.225-0.045-0.373-0.065l-0.837-0.131c-0.544-0.081-0.971-0.255-1.28-0.524
			c-0.376-0.316-0.564-0.756-0.564-1.321c0-0.605,0.198-1.084,0.595-1.437c0.396-0.353,0.941-0.529,1.633-0.529
			c0.444,0,0.822,0.061,1.134,0.183s0.624,0.316,0.933,0.584l-0.353,0.353c-0.114-0.101-0.229-0.191-0.343-0.272
			s-0.238-0.149-0.373-0.207c-0.134-0.057-0.286-0.103-0.454-0.136s-0.359-0.05-0.575-0.05c-0.524,0-0.933,0.133-1.225,0.398
			c-0.292,0.266-0.438,0.628-0.438,1.085c0,0.417,0.125,0.73,0.373,0.939c0.127,0.107,0.288,0.2,0.479,0.277
			c0.191,0.078,0.388,0.133,0.59,0.167l0.776,0.122c0.168,0.027,0.316,0.054,0.443,0.081c0.128,0.027,0.24,0.059,0.338,0.096
			c0.097,0.037,0.187,0.081,0.267,0.131c0.081,0.051,0.158,0.106,0.232,0.167c0.195,0.162,0.348,0.362,0.459,0.601
			s0.166,0.503,0.166,0.792C285.983,167.062,285.769,167.546,285.338,167.903z"/>
	</g>
</g>
<g>
	<g>
		<path fill-rule="evenodd" clip-rule="evenodd" fill="#486CA6" d="M133.724,44.424c1.605,0.978,3.491,1.542,5.508,1.542
			c5.856,0,10.604-4.748,10.604-10.606c0-0.437-0.029-0.867-0.081-1.29c-0.003-0.03-0.007-0.061-0.011-0.09
			c-0.017-0.133-0.037-0.266-0.059-0.397c-0.013-0.072-0.026-0.145-0.039-0.216c-0.016-0.088-0.034-0.175-0.053-0.262
			c-0.023-0.109-0.048-0.216-0.075-0.323c-0.011-0.048-0.024-0.095-0.036-0.143c-0.038-0.14-0.076-0.28-0.12-0.419
			c-0.003-0.009-0.006-0.02-0.009-0.03c-0.727-2.344-2.241-4.334-4.193-5.624c-1.693-1.145-3.733-1.812-5.93-1.812
			c-1.304,0-2.552,0.236-3.706,0.667c-2.443-0.067-4.402-1.092-6.128-3.235c-0.63-0.783-1.374-1.492-2.14-2.146
			c-2.312-1.973-3.066-4.35-2.409-7.358c0.723-3.311-1.011-6.6-3.993-8.135c-2.867-1.476-6.496-0.923-8.83,1.344
			c-2.397,2.328-3.012,6.027-1.491,8.975c1.534,2.973,4.798,4.655,8.145,4.007c2.501-0.485,4.541,0.124,6.281,1.955
			c1.094,1.15,2.206,2.29,3.375,3.364c1.657,1.522,2.352,3.234,2.163,5.155c-1.18,1.709-1.872,3.781-1.872,6.014
			c0,1.839,0.467,3.567,1.291,5.075c-0.092,1.391-0.666,2.647-1.865,3.734c-1.917,1.736-4.132,1.815-6.465,0.877
			c-2.102-0.845-4.221-0.82-6.325,0.02c-4.256,1.696-6.455,6.268-5.122,10.638c1.313,4.303,5.701,6.836,10.24,5.914
			c4.248-0.864,7.229-5.089,6.715-9.514C126.562,47.515,129.598,44.275,133.724,44.424z"/>
		<path fill-rule="evenodd" clip-rule="evenodd" fill="#486CA6" d="M176.408,63.291c-5.299,0.642-8.355-2.502-7.357-7.256
			c0.764-1.535,1.195-3.263,1.195-5.094c0-1.192-0.183-2.342-0.521-3.424c-0.26-5.046,3.872-8.944,9.073-8.256
			c2.237,0.295,4.146-0.343,5.721-1.923c2.157-2.163,2.5-5.586,0.87-8.184c-1.63-2.601-4.853-3.738-7.752-2.738
			c-3.1,1.07-4.687,3.712-4.385,7.529c0.306,1.674-0.027,3.377-1.3,4.861c-2.16,2.514-4.301,3.234-7.225,2.342
			c-1.728-1.047-3.756-1.65-5.924-1.65c-6.32,0-11.444,5.124-11.444,11.443c0,6.321,5.124,11.445,11.444,11.445
			c1.666,0,3.247-0.358,4.674-0.999c2.828-0.392,4.93,0.604,6.093,2.892c0.893,1.755,0.52,3.46,0.065,5.253
			c-0.876,3.456,0.062,6.472,2.801,8.766c2.598,2.175,5.612,2.633,8.731,1.329c3.193-1.336,5.013-3.825,5.272-7.318
			C186.856,66.696,182.256,62.582,176.408,63.291z"/>
		<path fill-rule="evenodd" clip-rule="evenodd" fill="#486CA6" d="M148.285,21.49c5.318-1.062,8.501,1.699,8.082,7.011
			c-0.307,3.889,1.505,6.633,4.699,7.112c3.285,0.493,6.072-1.384,6.814-4.589c0.856-3.692-1.937-6.938-6.114-7.106
			c-4.896-0.197-7.758-3.874-6.722-8.638c0.277-1.272,0.531-2.539,0.322-3.859c-0.814-5.133-5.435-8.604-10.444-7.827
			c-5.098,0.791-8.528,5.694-7.573,10.823C138.264,19.329,143.18,22.509,148.285,21.49z"/>
		<path fill-rule="evenodd" clip-rule="evenodd" fill="#486CA6" d="M147.873,63.203c-2.772,0.174-4.972-0.645-6.424-3.075
			c-1.037-1.736-0.789-3.558-0.395-5.448c0.503-2.417-0.387-4.413-2.404-5.832c-1.985-1.396-4.511-1.359-6.484,0.067
			c-2.021,1.462-2.722,3.48-2.256,5.894c0.486,2.523,2.384,4.098,5.62,4.534c2.94,0.396,4.652,2.121,5.507,4.803
			c0.507,1.595-0.063,3.086-0.604,4.612c-2.017,5.69,2.02,11.494,7.943,11.535c2.599,0.015,4.816-0.911,6.507-2.875
			c2.391-2.777,2.836-5.946,1.39-9.283C154.863,64.88,151.607,62.969,147.873,63.203z"/>
		<g>
			<path fill-rule="evenodd" clip-rule="evenodd" fill="#72A0CC" d="M178.891,18.602c4.138,0.073,7.585-3.354,7.584-7.539
				c-0.001-4.107-3.287-7.449-7.381-7.507c-4.168-0.06-7.575,3.326-7.571,7.523C171.527,15.182,174.806,18.531,178.891,18.602z"/>
		</g>
		<g>
			<path fill-rule="evenodd" clip-rule="evenodd" fill="#72A0CC" d="M116.129,67.674c-3.521-0.039-6.38,2.714-6.446,6.206
				c-0.064,3.455,2.772,6.354,6.259,6.399c3.514,0.044,6.375-2.716,6.438-6.212C122.444,70.592,119.628,67.713,116.129,67.674z"/>
		</g>
		<g>
			<path fill-rule="evenodd" clip-rule="evenodd" fill="#72A0CC" d="M120.867,32.594c-0.046-3.04-2.512-5.463-5.549-5.45
				c-3.031,0.013-5.509,2.458-5.555,5.48c-0.048,3.135,2.428,5.63,5.584,5.626C118.511,38.248,120.915,35.783,120.867,32.594z"/>
		</g>
		<g>
			<path fill-rule="evenodd" clip-rule="evenodd" fill="#72A0CC" d="M175.719,52.55c0.045,2.875,2.436,5.192,5.301,5.136
				c2.847-0.057,5.207-2.499,5.148-5.325c-0.061-2.867-2.437-5.135-5.338-5.094C177.915,47.309,175.671,49.627,175.719,52.55z"/>
		</g>
		<g>
			<path fill-rule="evenodd" clip-rule="evenodd" fill="#72A0CC" d="M164.408,18.598c2.334,0.005,4.213-1.925,4.188-4.303
				c-0.025-2.376-1.953-4.259-4.292-4.192c-2.264,0.065-4.057,1.905-4.083,4.188C160.195,16.664,162.069,18.59,164.408,18.598z"/>
		</g>
		<g>
			<path fill-rule="evenodd" clip-rule="evenodd" fill="#72A0CC" d="M131.432,63.383c-1.94-0.027-3.598,1.569-3.654,3.518
				c-0.058,2.02,1.665,3.773,3.671,3.732c1.914-0.038,3.581-1.736,3.575-3.641C135.018,65.071,133.365,63.411,131.432,63.383z"/>
		</g>
	</g>
</g>
</svg>
