<?xml version="1.0" encoding="utf-8"?>
<!-- Generator: Adobe Illustrator 16.0.0, SVG Export Plug-In . SVG Version: 6.00 Build 0)  -->
<!DOCTYPE svg PUBLIC "-//W3C//DTD SVG 1.1//EN" "http://www.w3.org/Graphics/SVG/1.1/DTD/svg11.dtd">
<svg version="1.1" id="Capa_1" xmlns="http://www.w3.org/2000/svg" xmlns:xlink="http://www.w3.org/1999/xlink" x="0px" y="0px"
	 width="293.963px" height="172.979px" viewBox="0 0 293.963 172.979" enable-background="new 0 0 293.963 172.979"
	 xml:space="preserve">
<g>
	<path fill="#FFFFFF" d="M275.283,142.941v7.504h-6.276c-1.677,0-3.265-0.309-4.748-0.934c-1.492-0.626-2.784-1.492-3.884-2.592
		c-1.099-1.1-1.973-2.378-2.619-3.849c-0.646-1.463-0.969-3.038-0.969-4.722v-7.492h-4.659v-7.162h4.659v-13.93h8.598v29.622
		c0,0.989,0.357,1.835,1.072,2.522c0.708,0.687,1.56,1.031,2.549,1.031H275.283z"/>
	<polygon fill="#72A0CC" points="274.423,123.703 274.423,130.887 269.641,130.887 265.625,123.703 	"/>
	<polygon fill="#72A0CC" points="250.231,123.67 250.231,130.851 244.733,130.851 244.671,130.851 240.726,123.67 	"/>
	<path fill="#FFFFFF" d="M250.231,105.175v7.566h-7.052c-1.121,0-1.98,0.433-2.584,1.292c-0.605,0.867-0.907,2.048-0.907,3.562
		v32.851h-8.599v-19.595h-4.66v-7.181h4.66v-6.468c0-1.637,0.309-3.189,0.935-4.653c0.626-1.47,1.485-2.75,2.584-3.849
		c1.1-1.099,2.385-1.965,3.849-2.591c1.471-0.625,3.044-0.934,4.722-0.934H250.231z"/>
	<path fill="#FFFFFF" d="M223.894,127.807c0.88,2.026,1.327,4.186,1.327,6.467c0,2.289-0.447,4.447-1.327,6.467
		c-0.887,2.028-2.083,3.801-3.587,5.306c-1.513,1.512-3.279,2.708-5.306,3.587c-2.028,0.887-4.206,1.326-6.537,1.326
		c-2.323,0-4.501-0.439-6.529-1.326c-2.027-0.879-3.793-2.075-5.306-3.587c-1.505-1.505-2.701-3.278-3.587-5.306
		c-0.88-2.02-1.327-4.178-1.327-6.467c0-2.282,0.447-4.441,1.327-6.467c0.887-2.02,2.082-3.793,3.587-5.299
		c1.512-1.512,3.279-2.708,5.306-3.587c2.028-0.887,4.206-1.326,6.529-1.326c2.331,0,4.509,0.439,6.537,1.326
		c2.027,0.879,3.793,2.075,5.306,3.587C221.811,124.014,223.007,125.787,223.894,127.807z M216.231,134.082
		c0-1.202-0.207-2.357-0.619-3.458c-0.405-1.099-0.969-2.047-1.677-2.844c-0.715-0.797-1.533-1.437-2.46-1.911
		c-0.927-0.475-1.931-0.708-3.01-0.708c-1.072,0-2.09,0.233-3.038,0.708c-0.948,0.474-1.78,1.113-2.488,1.911
		c-0.715,0.797-1.271,1.745-1.684,2.844c-0.406,1.1-0.612,2.255-0.612,3.458c0,1.292,0.206,2.495,0.612,3.595
		c0.412,1.093,0.969,2.069,1.684,2.908c0.708,0.838,1.54,1.497,2.488,1.971c0.948,0.475,1.966,0.708,3.038,0.708
		c1.079,0,2.083-0.233,3.01-0.708c0.928-0.475,1.746-1.133,2.46-1.971c0.708-0.839,1.272-1.815,1.677-2.908
		C216.024,136.576,216.231,135.374,216.231,134.082z"/>
	<path fill="#FFFFFF" d="M190.183,136.865v0.192c0,2.068-0.42,3.966-1.265,5.691c-0.839,1.725-2,3.203-3.491,4.432
		c-1.485,1.231-3.23,2.18-5.238,2.847c-2.006,0.666-4.192,1.003-6.563,1.003c-2.2,0-4.302-0.267-6.31-0.804
		c-2-0.536-3.821-1.244-5.463-2.117c-1.636-0.88-3.073-1.876-4.303-2.983c-1.223-1.113-2.164-2.274-2.811-3.477l7.566-4.784
		c0.818,0.908,1.636,1.711,2.461,2.426c0.818,0.708,1.677,1.313,2.584,1.807c0.907,0.496,1.897,0.873,2.976,1.135
		c1.079,0.253,2.261,0.384,3.56,0.384c0.817,0,1.642-0.083,2.488-0.253c0.838-0.172,1.602-0.454,2.295-0.846
		c0.688-0.384,1.251-0.873,1.677-1.457c0.434-0.583,0.653-1.306,0.653-2.172c0-0.605-0.151-1.183-0.454-1.746
		c-0.302-0.563-0.817-1.113-1.553-1.656c-0.735-0.537-1.725-1.053-2.976-1.554c-1.25-0.495-2.824-0.983-4.722-1.457
		c-2.33-0.563-4.419-1.197-6.275-1.911c-1.856-0.715-3.422-1.574-4.721-2.59c-1.292-1.018-2.282-2.234-2.976-3.664
		c-0.688-1.423-1.031-3.107-1.031-5.053c0-2.116,0.399-4.027,1.196-5.732c0.797-1.704,1.911-3.141,3.333-4.309
		c1.422-1.168,3.093-2.063,5.011-2.688c1.917-0.626,3.979-0.942,6.178-0.942c2.282,0,4.35,0.261,6.206,0.776
		c1.856,0.517,3.513,1.176,4.983,1.973c1.464,0.797,2.749,1.704,3.842,2.715c1.1,1.017,2.021,2,2.749,2.941l-7.436,4.79
		c-1.856-1.767-3.608-3.011-5.272-3.719c-1.656-0.714-3.395-1.071-5.202-1.071c-1.121,0-2.083,0.145-2.88,0.426
		c-0.797,0.282-1.458,0.626-1.973,1.031c-0.516,0.413-0.915,0.873-1.195,1.395c-0.282,0.516-0.419,1.011-0.419,1.485
		c0,0.866,0.227,1.608,0.68,2.234c0.446,0.626,1.12,1.196,2,1.711c0.886,0.516,1.986,0.989,3.298,1.423
		c1.313,0.432,2.811,0.866,4.495,1.291c2.069,0.564,3.979,1.189,5.725,1.877c1.746,0.694,3.257,1.533,4.529,2.522
		c1.271,0.997,2.261,2.178,2.976,3.559C189.825,133.333,190.183,134.967,190.183,136.865z"/>
	<rect x="144.382" y="118.109" fill="#FFFFFF" width="8.866" height="32.529"/>
	<path fill="#FFFFFF" d="M144.141,147.923v0.062c-2.241,1.987-5.024,2.976-8.343,2.976c-5.258,0-8.99-1.421-11.189-4.267
		c-2.027-2.545-3.038-6.598-3.038-12.159v-16.426h8.859v16.426c0,1.162,0.035,2.289,0.097,3.36c0.068,1.08,0.302,2.028,0.714,2.845
		c0.406,0.824,1.044,1.477,1.904,1.973c0.866,0.501,2.096,0.749,3.691,0.749c0.728,0,1.443-0.109,2.13-0.322
		c0.695-0.22,1.34-0.496,1.946-0.846h0.124L144.141,147.923z"/>
	<path fill="#FFFFFF" d="M118.712,127.876c0.88,2.027,1.326,4.178,1.326,6.467c0,2.282-0.446,4.44-1.326,6.468
		c-0.887,2.027-2.083,3.793-3.587,5.307c-1.513,1.505-3.279,2.694-5.306,3.553c-2.028,0.866-4.187,1.291-6.467,1.291
		c-4.44,0-7.829-1.635-10.158-4.914v4.398h-8.537v-45.271h8.604v29.167c0,1.251,0.234,2.413,0.708,3.492
		c0.475,1.079,1.114,2.013,1.911,2.811c0.797,0.804,1.746,1.436,2.845,1.91c1.1,0.475,2.275,0.708,3.526,0.708
		c1.202,0,2.358-0.233,3.457-0.708c1.1-0.475,2.048-1.106,2.845-1.91c0.797-0.798,1.437-1.732,1.911-2.811
		c0.475-1.08,0.708-2.241,0.708-3.492s-0.234-2.412-0.708-3.492c-0.474-1.079-1.113-2.026-1.911-2.845
		c-0.797-0.817-1.746-1.457-2.845-1.91c-1.099-0.454-2.255-0.681-3.457-0.681c-1.161,0-2.33,0.241-3.492,0.716l-0.068,0.061
		l-0.062-0.129l-3.168-5.822l0.062-0.062c2.117-1.637,4.722-2.46,7.829-2.46c2.281,0,4.439,0.432,6.467,1.299
		c2.027,0.858,3.793,2.047,5.306,3.553C116.629,124.082,117.825,125.849,118.712,127.876z"/>
	<path fill="#FFFFFF" d="M82.883,118.109v32.336h-8.474v-16.212c0-1.251-0.24-2.42-0.715-3.5c-0.475-1.079-1.126-2.033-1.973-2.852
		c-0.838-0.824-1.807-1.457-2.906-1.911c-1.101-0.453-2.255-0.687-3.458-0.687c-1.251,0-2.419,0.24-3.498,0.715
		c-1.072,0.48-2.035,1.121-2.873,1.917c-0.846,0.797-1.499,1.753-1.974,2.852c-0.48,1.106-0.714,2.29-0.714,3.54
		c0,1.217,0.233,2.365,0.714,3.443c0.475,1.08,1.127,2.034,1.974,2.852c0.838,0.825,1.8,1.471,2.873,1.952
		c1.079,0.475,2.247,0.708,3.498,0.708c1.333,0,2.474-0.233,3.423-0.708h0.068v0.131l3.23,5.752l-0.063,0.069
		c-2.117,1.635-4.721,2.453-7.828,2.453c-2.281,0-4.44-0.425-6.467-1.291c-2.027-0.858-3.793-2.048-5.299-3.553
		c-1.511-1.514-2.708-3.279-3.594-5.307c-0.88-2.028-1.327-4.186-1.327-6.468c0-2.33,0.447-4.509,1.327-6.536
		c0.887-2.02,2.083-3.793,3.594-5.299c1.506-1.512,3.272-2.708,5.299-3.587c2.027-0.887,4.186-1.326,6.467-1.326
		c2.241,0,4.206,0.412,5.89,1.25c1.677,0.831,3.12,2.041,4.33,3.623v-4.358H82.883z"/>
	<path fill="#FFFFFF" d="M45.646,119.854v15.519c0,2.069-0.399,4.014-1.197,5.822c-0.797,1.814-1.876,3.408-3.237,4.79
		c-1.354,1.381-2.962,2.468-4.818,3.264c-1.855,0.797-3.834,1.197-5.944,1.197H20.23v-8.989h10.22c0.859,0,1.656-0.166,2.392-0.487
		c0.729-0.324,1.374-0.764,1.938-1.32c0.557-0.563,0.99-1.21,1.292-1.945c0.302-0.729,0.453-1.505,0.453-2.331v-20.501
		L45.646,119.854z"/>
	<polygon fill="#72A0CC" points="45.646,105.175 45.646,113.58 28.052,113.58 23.591,105.175 	"/>
</g>
<g>
	<path fill="#FFFFFF" d="M91.164,167.147c-0.418,0.347-0.993,0.52-1.725,0.52c-0.262,0-0.499-0.018-0.711-0.054
		s-0.412-0.091-0.598-0.167s-0.363-0.171-0.529-0.289s-0.328-0.255-0.485-0.412l0.372-0.373c0.157,0.157,0.309,0.288,0.456,0.392
		s0.299,0.189,0.456,0.255s0.322,0.111,0.495,0.137c0.173,0.026,0.364,0.039,0.573,0.039c0.555,0,0.993-0.126,1.313-0.377
		c0.32-0.251,0.48-0.606,0.48-1.063c0-0.424-0.127-0.751-0.382-0.98c-0.065-0.052-0.127-0.098-0.186-0.137
		c-0.059-0.039-0.126-0.072-0.201-0.098c-0.075-0.026-0.162-0.051-0.259-0.074c-0.098-0.023-0.219-0.044-0.363-0.064l-0.813-0.127
		c-0.529-0.079-0.944-0.249-1.245-0.51c-0.366-0.307-0.549-0.735-0.549-1.284c0-0.588,0.192-1.053,0.578-1.396
		c0.385-0.343,0.915-0.515,1.588-0.515c0.431,0,0.798,0.06,1.103,0.178c0.304,0.118,0.606,0.307,0.906,0.567l-0.343,0.343
		c-0.111-0.098-0.222-0.186-0.333-0.265c-0.111-0.078-0.232-0.145-0.362-0.201c-0.131-0.056-0.278-0.1-0.441-0.132
		c-0.164-0.033-0.35-0.049-0.559-0.049c-0.509,0-0.906,0.129-1.19,0.388c-0.284,0.258-0.426,0.61-0.426,1.055
		c0,0.406,0.121,0.71,0.362,0.913c0.124,0.105,0.279,0.195,0.466,0.27c0.186,0.075,0.377,0.129,0.573,0.162l0.754,0.118
		c0.164,0.026,0.307,0.052,0.432,0.079c0.124,0.026,0.233,0.057,0.328,0.093c0.095,0.036,0.181,0.078,0.26,0.127
		c0.078,0.049,0.153,0.103,0.225,0.162c0.189,0.157,0.338,0.352,0.446,0.584c0.108,0.232,0.162,0.489,0.162,0.771
		C91.792,166.329,91.583,166.8,91.164,167.147z"/>
	<path fill="#FFFFFF" d="M100.445,165.139c-0.007,0.288-0.031,0.539-0.074,0.754c-0.042,0.216-0.107,0.407-0.196,0.574
		c-0.088,0.167-0.211,0.328-0.368,0.485c-0.229,0.229-0.493,0.405-0.794,0.529c-0.3,0.124-0.617,0.186-0.951,0.186
		c-0.333,0-0.65-0.062-0.951-0.186c-0.3-0.124-0.565-0.3-0.793-0.529c-0.157-0.157-0.279-0.318-0.368-0.485
		c-0.088-0.167-0.154-0.358-0.196-0.574c-0.043-0.215-0.067-0.467-0.074-0.754c-0.007-0.288-0.01-0.627-0.01-1.02
		c0-0.392,0.003-0.73,0.01-1.014c0.006-0.284,0.031-0.534,0.074-0.75c0.042-0.215,0.107-0.408,0.196-0.578s0.21-0.333,0.368-0.49
		c0.229-0.229,0.493-0.405,0.793-0.529c0.301-0.124,0.618-0.187,0.951-0.187c0.333,0,0.65,0.063,0.951,0.187
		c0.301,0.124,0.565,0.3,0.794,0.529c0.157,0.157,0.279,0.32,0.368,0.49s0.153,0.363,0.196,0.578
		c0.042,0.216,0.067,0.466,0.074,0.75c0.006,0.284,0.01,0.623,0.01,1.014C100.455,164.511,100.452,164.851,100.445,165.139z
		 M99.911,163.164c-0.01-0.265-0.033-0.493-0.069-0.686c-0.036-0.192-0.09-0.359-0.162-0.5s-0.17-0.273-0.294-0.397
		c-0.176-0.177-0.379-0.311-0.607-0.402c-0.229-0.091-0.467-0.137-0.716-0.137c-0.248,0-0.487,0.046-0.715,0.137
		s-0.431,0.225-0.607,0.402c-0.125,0.124-0.222,0.256-0.294,0.397c-0.072,0.141-0.126,0.307-0.162,0.5
		c-0.036,0.193-0.059,0.421-0.068,0.686s-0.015,0.583-0.015,0.956c0,0.373,0.005,0.691,0.015,0.956s0.033,0.494,0.068,0.686
		c0.036,0.193,0.09,0.36,0.162,0.5c0.072,0.141,0.169,0.273,0.294,0.397c0.176,0.176,0.379,0.311,0.607,0.402
		c0.229,0.092,0.467,0.137,0.715,0.137c0.249,0,0.487-0.045,0.716-0.137c0.229-0.091,0.431-0.226,0.607-0.402
		c0.124-0.124,0.222-0.256,0.294-0.397c0.072-0.14,0.126-0.307,0.162-0.5c0.036-0.192,0.059-0.421,0.069-0.686
		s0.015-0.583,0.015-0.956C99.926,163.747,99.921,163.428,99.911,163.164z"/>
	<path fill="#FFFFFF" d="M104.836,167.608v-6.978h0.529v6.508h3.705v0.47H104.836z"/>
	<path fill="#FFFFFF" d="M117.449,166.28c-0.118,0.284-0.283,0.529-0.495,0.735c-0.212,0.206-0.464,0.366-0.754,0.48
		c-0.291,0.114-0.613,0.171-0.965,0.171c-0.353,0-0.675-0.057-0.965-0.171c-0.291-0.114-0.542-0.274-0.755-0.48
		c-0.212-0.206-0.377-0.451-0.495-0.735c-0.117-0.284-0.176-0.596-0.176-0.936v-4.714h0.529v4.646c0,0.288,0.044,0.55,0.132,0.789
		c0.088,0.238,0.214,0.441,0.377,0.607c0.163,0.167,0.359,0.296,0.588,0.387c0.229,0.092,0.483,0.137,0.765,0.137
		c0.281,0,0.536-0.045,0.764-0.137c0.229-0.091,0.425-0.221,0.588-0.387c0.163-0.167,0.289-0.369,0.377-0.607
		c0.088-0.239,0.132-0.501,0.132-0.789v-4.646h0.529v4.714C117.625,165.684,117.567,165.996,117.449,166.28z"/>
	<path fill="#FFFFFF" d="M126.377,166.477c-0.137,0.251-0.309,0.465-0.515,0.642c-0.206,0.177-0.441,0.313-0.706,0.407
		c-0.265,0.095-0.551,0.142-0.858,0.142c-0.333,0-0.65-0.062-0.951-0.186c-0.3-0.124-0.565-0.3-0.793-0.529
		c-0.157-0.157-0.279-0.318-0.368-0.485c-0.088-0.167-0.154-0.358-0.196-0.574c-0.043-0.215-0.067-0.467-0.074-0.754
		c-0.007-0.288-0.01-0.627-0.01-1.02c0-0.392,0.003-0.73,0.01-1.014c0.006-0.284,0.031-0.534,0.074-0.75
		c0.042-0.215,0.107-0.408,0.196-0.578s0.21-0.333,0.368-0.49c0.229-0.229,0.493-0.405,0.793-0.529
		c0.301-0.124,0.618-0.187,0.951-0.187c0.314,0,0.603,0.048,0.868,0.142c0.265,0.095,0.498,0.23,0.701,0.407
		c0.203,0.177,0.373,0.391,0.51,0.642s0.235,0.534,0.294,0.848h-0.539c-0.104-0.483-0.318-0.866-0.642-1.146
		c-0.323-0.281-0.72-0.421-1.191-0.421c-0.248,0-0.487,0.046-0.715,0.137s-0.431,0.225-0.607,0.402
		c-0.125,0.124-0.222,0.256-0.294,0.397c-0.072,0.141-0.126,0.307-0.162,0.5c-0.036,0.193-0.059,0.421-0.068,0.686
		s-0.015,0.583-0.015,0.956c0,0.373,0.005,0.691,0.015,0.956s0.033,0.494,0.068,0.686c0.036,0.193,0.09,0.36,0.162,0.5
		c0.072,0.141,0.169,0.273,0.294,0.397c0.176,0.176,0.379,0.311,0.607,0.402c0.229,0.092,0.467,0.137,0.715,0.137
		c0.471,0,0.871-0.141,1.201-0.421s0.547-0.663,0.652-1.147h0.52C126.612,165.942,126.515,166.225,126.377,166.477z"/>
	<path fill="#FFFFFF" d="M130.993,167.608v-6.978h0.529v6.978H130.993z"/>
	<path fill="#FFFFFF" d="M140.676,165.139c-0.007,0.288-0.031,0.539-0.074,0.754c-0.042,0.216-0.107,0.407-0.196,0.574
		c-0.088,0.167-0.211,0.328-0.368,0.485c-0.229,0.229-0.493,0.405-0.794,0.529c-0.3,0.124-0.617,0.186-0.951,0.186
		c-0.333,0-0.65-0.062-0.951-0.186c-0.3-0.124-0.565-0.3-0.793-0.529c-0.157-0.157-0.279-0.318-0.368-0.485
		c-0.088-0.167-0.154-0.358-0.196-0.574c-0.043-0.215-0.067-0.467-0.074-0.754c-0.007-0.288-0.01-0.627-0.01-1.02
		c0-0.392,0.003-0.73,0.01-1.014c0.006-0.284,0.031-0.534,0.074-0.75c0.042-0.215,0.107-0.408,0.196-0.578s0.21-0.333,0.368-0.49
		c0.229-0.229,0.493-0.405,0.793-0.529c0.301-0.124,0.618-0.187,0.951-0.187c0.333,0,0.65,0.063,0.951,0.187
		c0.301,0.124,0.565,0.3,0.794,0.529c0.157,0.157,0.279,0.32,0.368,0.49s0.153,0.363,0.196,0.578
		c0.042,0.216,0.067,0.466,0.074,0.75c0.006,0.284,0.01,0.623,0.01,1.014C140.686,164.511,140.683,164.851,140.676,165.139z
		 M140.142,163.164c-0.01-0.265-0.033-0.493-0.069-0.686c-0.036-0.192-0.09-0.359-0.162-0.5s-0.17-0.273-0.294-0.397
		c-0.176-0.177-0.379-0.311-0.607-0.402c-0.229-0.091-0.467-0.137-0.716-0.137c-0.248,0-0.487,0.046-0.715,0.137
		s-0.431,0.225-0.607,0.402c-0.125,0.124-0.222,0.256-0.294,0.397c-0.072,0.141-0.126,0.307-0.162,0.5
		c-0.036,0.193-0.059,0.421-0.068,0.686s-0.015,0.583-0.015,0.956c0,0.373,0.005,0.691,0.015,0.956s0.033,0.494,0.068,0.686
		c0.036,0.193,0.09,0.36,0.162,0.5c0.072,0.141,0.169,0.273,0.294,0.397c0.176,0.176,0.379,0.311,0.607,0.402
		c0.229,0.092,0.467,0.137,0.715,0.137c0.249,0,0.487-0.045,0.716-0.137c0.229-0.091,0.431-0.226,0.607-0.402
		c0.124-0.124,0.222-0.256,0.294-0.397c0.072-0.14,0.126-0.307,0.162-0.5c0.036-0.192,0.059-0.421,0.069-0.686
		s0.015-0.583,0.015-0.956C140.157,163.747,140.152,163.428,140.142,163.164z"/>
	<path fill="#FFFFFF" d="M149.624,167.608l-4.028-6.066v6.066h-0.529v-6.978h0.529l4.028,6.047v-6.047h0.529v6.978H149.624z"/>
	<path fill="#FFFFFF" d="M154.809,167.608v-6.978h4.234v0.47h-3.705v2.754h3.156v0.471h-3.156v2.813h3.705v0.47H154.809z"/>
	<path fill="#FFFFFF" d="M166.638,167.147c-0.418,0.347-0.993,0.52-1.725,0.52c-0.262,0-0.499-0.018-0.711-0.054
		s-0.412-0.091-0.598-0.167s-0.363-0.171-0.529-0.289s-0.328-0.255-0.485-0.412l0.372-0.373c0.157,0.157,0.309,0.288,0.456,0.392
		s0.299,0.189,0.456,0.255s0.322,0.111,0.495,0.137c0.173,0.026,0.364,0.039,0.573,0.039c0.555,0,0.993-0.126,1.313-0.377
		c0.32-0.251,0.48-0.606,0.48-1.063c0-0.424-0.127-0.751-0.382-0.98c-0.065-0.052-0.127-0.098-0.186-0.137
		c-0.059-0.039-0.126-0.072-0.201-0.098c-0.075-0.026-0.162-0.051-0.259-0.074c-0.098-0.023-0.219-0.044-0.363-0.064l-0.813-0.127
		c-0.529-0.079-0.944-0.249-1.245-0.51c-0.366-0.307-0.549-0.735-0.549-1.284c0-0.588,0.192-1.053,0.578-1.396
		c0.385-0.343,0.915-0.515,1.588-0.515c0.431,0,0.798,0.06,1.103,0.178c0.304,0.118,0.606,0.307,0.906,0.567l-0.343,0.343
		c-0.111-0.098-0.222-0.186-0.333-0.265c-0.111-0.078-0.232-0.145-0.362-0.201c-0.131-0.056-0.278-0.1-0.441-0.132
		c-0.164-0.033-0.35-0.049-0.559-0.049c-0.509,0-0.906,0.129-1.19,0.388c-0.284,0.258-0.426,0.61-0.426,1.055
		c0,0.406,0.121,0.71,0.362,0.913c0.124,0.105,0.279,0.195,0.466,0.27c0.186,0.075,0.377,0.129,0.573,0.162l0.754,0.118
		c0.164,0.026,0.307,0.052,0.432,0.079c0.124,0.026,0.233,0.057,0.328,0.093c0.095,0.036,0.181,0.078,0.26,0.127
		c0.078,0.049,0.153,0.103,0.225,0.162c0.189,0.157,0.338,0.352,0.446,0.584c0.108,0.232,0.162,0.489,0.162,0.771
		C167.265,166.329,167.056,166.8,166.638,167.147z"/>
	<path fill="#FFFFFF" d="M180.74,161.101v6.508h-0.529v-6.508h-2.078v-0.47h4.695v0.47H180.74z"/>
	<path fill="#FFFFFF" d="M186.699,167.608v-6.978h4.234v0.47h-3.705v2.754h3.156v0.471h-3.156v2.813h3.705v0.47H186.699z"/>
	<path fill="#FFFFFF" d="M199.254,166.477c-0.137,0.251-0.309,0.465-0.515,0.642c-0.206,0.177-0.441,0.313-0.706,0.407
		c-0.265,0.095-0.551,0.142-0.858,0.142c-0.333,0-0.65-0.062-0.951-0.186c-0.3-0.124-0.565-0.3-0.793-0.529
		c-0.157-0.157-0.279-0.318-0.368-0.485c-0.088-0.167-0.154-0.358-0.196-0.574c-0.043-0.215-0.067-0.467-0.074-0.754
		c-0.007-0.288-0.01-0.627-0.01-1.02c0-0.392,0.003-0.73,0.01-1.014c0.006-0.284,0.031-0.534,0.074-0.75
		c0.042-0.215,0.107-0.408,0.196-0.578s0.21-0.333,0.368-0.49c0.229-0.229,0.493-0.405,0.793-0.529
		c0.301-0.124,0.618-0.187,0.951-0.187c0.314,0,0.603,0.048,0.868,0.142c0.265,0.095,0.498,0.23,0.701,0.407
		c0.203,0.177,0.373,0.391,0.51,0.642s0.235,0.534,0.294,0.848h-0.539c-0.104-0.483-0.318-0.866-0.642-1.146
		c-0.323-0.281-0.72-0.421-1.191-0.421c-0.248,0-0.487,0.046-0.715,0.137s-0.431,0.225-0.607,0.402
		c-0.125,0.124-0.222,0.256-0.294,0.397c-0.072,0.141-0.126,0.307-0.162,0.5c-0.036,0.193-0.059,0.421-0.068,0.686
		s-0.015,0.583-0.015,0.956c0,0.373,0.005,0.691,0.015,0.956s0.033,0.494,0.068,0.686c0.036,0.193,0.09,0.36,0.162,0.5
		c0.072,0.141,0.169,0.273,0.294,0.397c0.176,0.176,0.379,0.311,0.607,0.402c0.229,0.092,0.467,0.137,0.715,0.137
		c0.471,0,0.871-0.141,1.201-0.421s0.547-0.663,0.652-1.147h0.52C199.489,165.942,199.391,166.225,199.254,166.477z"/>
	<path fill="#FFFFFF" d="M208.427,167.608l-4.028-6.066v6.066h-0.529v-6.978h0.529l4.028,6.047v-6.047h0.529v6.978H208.427z"/>
	<path fill="#FFFFFF" d="M218.11,165.139c-0.007,0.288-0.031,0.539-0.074,0.754c-0.042,0.216-0.107,0.407-0.196,0.574
		c-0.088,0.167-0.211,0.328-0.368,0.485c-0.229,0.229-0.493,0.405-0.794,0.529c-0.3,0.124-0.617,0.186-0.951,0.186
		c-0.333,0-0.65-0.062-0.951-0.186c-0.3-0.124-0.565-0.3-0.793-0.529c-0.157-0.157-0.279-0.318-0.368-0.485
		c-0.088-0.167-0.154-0.358-0.196-0.574c-0.043-0.215-0.067-0.467-0.074-0.754c-0.007-0.288-0.01-0.627-0.01-1.02
		c0-0.392,0.003-0.73,0.01-1.014c0.006-0.284,0.031-0.534,0.074-0.75c0.042-0.215,0.107-0.408,0.196-0.578s0.21-0.333,0.368-0.49
		c0.229-0.229,0.493-0.405,0.793-0.529c0.301-0.124,0.618-0.187,0.951-0.187c0.333,0,0.65,0.063,0.951,0.187
		c0.301,0.124,0.565,0.3,0.794,0.529c0.157,0.157,0.279,0.32,0.368,0.49s0.153,0.363,0.196,0.578
		c0.042,0.216,0.067,0.466,0.074,0.75c0.006,0.284,0.01,0.623,0.01,1.014C218.12,164.511,218.116,164.851,218.11,165.139z
		 M217.576,163.164c-0.01-0.265-0.033-0.493-0.069-0.686c-0.036-0.192-0.09-0.359-0.162-0.5s-0.17-0.273-0.294-0.397
		c-0.176-0.177-0.379-0.311-0.607-0.402c-0.229-0.091-0.467-0.137-0.716-0.137c-0.248,0-0.487,0.046-0.715,0.137
		s-0.431,0.225-0.607,0.402c-0.125,0.124-0.222,0.256-0.294,0.397c-0.072,0.141-0.126,0.307-0.162,0.5
		c-0.036,0.193-0.059,0.421-0.068,0.686s-0.015,0.583-0.015,0.956c0,0.373,0.005,0.691,0.015,0.956s0.033,0.494,0.068,0.686
		c0.036,0.193,0.09,0.36,0.162,0.5c0.072,0.141,0.169,0.273,0.294,0.397c0.176,0.176,0.379,0.311,0.607,0.402
		c0.229,0.092,0.467,0.137,0.715,0.137c0.249,0,0.487-0.045,0.716-0.137c0.229-0.091,0.431-0.226,0.607-0.402
		c0.124-0.124,0.222-0.256,0.294-0.397c0.072-0.14,0.126-0.307,0.162-0.5c0.036-0.192,0.059-0.421,0.069-0.686
		s0.015-0.583,0.015-0.956C217.59,163.747,217.585,163.428,217.576,163.164z"/>
	<path fill="#FFFFFF" d="M222.5,167.608v-6.978h0.529v6.508h3.705v0.47H222.5z"/>
	<path fill="#FFFFFF" d="M235.104,165.139c-0.007,0.288-0.031,0.539-0.074,0.754c-0.042,0.216-0.107,0.407-0.196,0.574
		c-0.088,0.167-0.211,0.328-0.368,0.485c-0.229,0.229-0.493,0.405-0.794,0.529c-0.3,0.124-0.617,0.186-0.951,0.186
		c-0.333,0-0.65-0.062-0.951-0.186c-0.3-0.124-0.565-0.3-0.793-0.529c-0.157-0.157-0.279-0.318-0.368-0.485
		c-0.088-0.167-0.154-0.358-0.196-0.574c-0.043-0.215-0.067-0.467-0.074-0.754c-0.007-0.288-0.01-0.627-0.01-1.02
		c0-0.392,0.003-0.73,0.01-1.014c0.006-0.284,0.031-0.534,0.074-0.75c0.042-0.215,0.107-0.408,0.196-0.578s0.21-0.333,0.368-0.49
		c0.229-0.229,0.493-0.405,0.793-0.529c0.301-0.124,0.618-0.187,0.951-0.187c0.333,0,0.65,0.063,0.951,0.187
		c0.301,0.124,0.565,0.3,0.794,0.529c0.157,0.157,0.279,0.32,0.368,0.49s0.153,0.363,0.196,0.578
		c0.042,0.216,0.067,0.466,0.074,0.75c0.006,0.284,0.01,0.623,0.01,1.014C235.114,164.511,235.11,164.851,235.104,165.139z
		 M234.57,163.164c-0.01-0.265-0.033-0.493-0.069-0.686c-0.036-0.192-0.09-0.359-0.162-0.5s-0.17-0.273-0.294-0.397
		c-0.176-0.177-0.379-0.311-0.607-0.402c-0.229-0.091-0.467-0.137-0.716-0.137c-0.248,0-0.487,0.046-0.715,0.137
		s-0.431,0.225-0.607,0.402c-0.125,0.124-0.222,0.256-0.294,0.397c-0.072,0.141-0.126,0.307-0.162,0.5
		c-0.036,0.193-0.059,0.421-0.068,0.686s-0.015,0.583-0.015,0.956c0,0.373,0.005,0.691,0.015,0.956s0.033,0.494,0.068,0.686
		c0.036,0.193,0.09,0.36,0.162,0.5c0.072,0.141,0.169,0.273,0.294,0.397c0.176,0.176,0.379,0.311,0.607,0.402
		c0.229,0.092,0.467,0.137,0.715,0.137c0.249,0,0.487-0.045,0.716-0.137c0.229-0.091,0.431-0.226,0.607-0.402
		c0.124-0.124,0.222-0.256,0.294-0.397c0.072-0.14,0.126-0.307,0.162-0.5c0.036-0.192,0.059-0.421,0.069-0.686
		s0.015-0.583,0.015-0.956C234.584,163.747,234.58,163.428,234.57,163.164z M232.83,159.964h-0.568l0.951-1.441h0.657
		L232.83,159.964z"/>
	<path fill="#FFFFFF" d="M243.885,166.128c-0.085,0.268-0.232,0.513-0.441,0.735c-0.229,0.254-0.503,0.452-0.823,0.593
		c-0.32,0.141-0.657,0.21-1.01,0.21c-0.333,0-0.65-0.062-0.951-0.186c-0.3-0.124-0.565-0.3-0.793-0.529
		c-0.157-0.157-0.279-0.318-0.368-0.485c-0.088-0.167-0.154-0.358-0.196-0.574c-0.043-0.215-0.067-0.467-0.074-0.754
		c-0.007-0.288-0.01-0.627-0.01-1.02c0-0.392,0.003-0.73,0.01-1.014c0.006-0.284,0.031-0.534,0.074-0.75
		c0.042-0.215,0.107-0.408,0.196-0.578s0.21-0.333,0.368-0.49c0.229-0.229,0.493-0.405,0.793-0.529
		c0.301-0.124,0.618-0.187,0.951-0.187c0.307,0,0.593,0.049,0.858,0.147c0.265,0.098,0.501,0.235,0.71,0.412
		c0.209,0.177,0.384,0.391,0.524,0.642c0.14,0.251,0.237,0.531,0.289,0.838h-0.529c-0.104-0.483-0.322-0.866-0.652-1.146
		s-0.73-0.421-1.201-0.421c-0.248,0-0.487,0.046-0.715,0.137s-0.431,0.225-0.607,0.402c-0.125,0.124-0.222,0.256-0.294,0.397
		c-0.072,0.141-0.126,0.307-0.162,0.5c-0.036,0.193-0.059,0.421-0.068,0.686s-0.015,0.583-0.015,0.956
		c0,0.373,0.005,0.691,0.015,0.956s0.033,0.494,0.068,0.686c0.036,0.193,0.09,0.36,0.162,0.5c0.072,0.141,0.169,0.273,0.294,0.397
		c0.176,0.176,0.379,0.311,0.607,0.402c0.229,0.092,0.467,0.137,0.715,0.137c0.274,0,0.539-0.057,0.794-0.171
		s0.474-0.283,0.657-0.505c0.15-0.189,0.258-0.392,0.323-0.607c0.065-0.216,0.098-0.474,0.098-0.774v-0.627h-1.872v-0.47h2.401
		v1.137C244.013,165.544,243.97,165.861,243.885,166.128z"/>
	<path fill="#FFFFFF" d="M248.374,167.608v-6.978h0.529v6.978H248.374z"/>
	<path fill="#FFFFFF" d="M257.753,166.477c-0.137,0.251-0.309,0.465-0.515,0.642c-0.206,0.177-0.441,0.313-0.706,0.407
		c-0.265,0.095-0.551,0.142-0.858,0.142c-0.333,0-0.65-0.062-0.951-0.186c-0.3-0.124-0.565-0.3-0.793-0.529
		c-0.157-0.157-0.279-0.318-0.368-0.485c-0.088-0.167-0.154-0.358-0.196-0.574c-0.043-0.215-0.067-0.467-0.074-0.754
		c-0.007-0.288-0.01-0.627-0.01-1.02c0-0.392,0.003-0.73,0.01-1.014c0.006-0.284,0.031-0.534,0.074-0.75
		c0.042-0.215,0.107-0.408,0.196-0.578s0.21-0.333,0.368-0.49c0.229-0.229,0.493-0.405,0.793-0.529
		c0.301-0.124,0.618-0.187,0.951-0.187c0.314,0,0.603,0.048,0.868,0.142c0.265,0.095,0.498,0.23,0.701,0.407
		c0.203,0.177,0.373,0.391,0.51,0.642s0.235,0.534,0.294,0.848h-0.539c-0.104-0.483-0.318-0.866-0.642-1.146
		c-0.323-0.281-0.72-0.421-1.191-0.421c-0.248,0-0.487,0.046-0.715,0.137s-0.431,0.225-0.607,0.402
		c-0.125,0.124-0.222,0.256-0.294,0.397c-0.072,0.141-0.126,0.307-0.162,0.5c-0.036,0.193-0.059,0.421-0.068,0.686
		s-0.015,0.583-0.015,0.956c0,0.373,0.005,0.691,0.015,0.956s0.033,0.494,0.068,0.686c0.036,0.193,0.09,0.36,0.162,0.5
		c0.072,0.141,0.169,0.273,0.294,0.397c0.176,0.176,0.379,0.311,0.607,0.402c0.229,0.092,0.467,0.137,0.715,0.137
		c0.471,0,0.871-0.141,1.201-0.421s0.547-0.663,0.652-1.147h0.52C257.988,165.942,257.89,166.225,257.753,166.477z"/>
	<path fill="#FFFFFF" d="M266.475,167.608l-0.607-1.695h-3.254l-0.608,1.695h-0.568l2.568-6.978h0.47l2.568,6.978H266.475z
		 M264.241,161.336l-1.46,4.106h2.92L264.241,161.336z"/>
	<path fill="#FFFFFF" d="M274.237,167.147c-0.418,0.347-0.993,0.52-1.725,0.52c-0.262,0-0.499-0.018-0.711-0.054
		s-0.412-0.091-0.598-0.167s-0.363-0.171-0.529-0.289s-0.328-0.255-0.485-0.412l0.372-0.373c0.157,0.157,0.309,0.288,0.456,0.392
		s0.299,0.189,0.456,0.255s0.322,0.111,0.495,0.137c0.173,0.026,0.364,0.039,0.573,0.039c0.555,0,0.993-0.126,1.313-0.377
		c0.32-0.251,0.48-0.606,0.48-1.063c0-0.424-0.127-0.751-0.382-0.98c-0.065-0.052-0.127-0.098-0.186-0.137
		c-0.059-0.039-0.126-0.072-0.201-0.098c-0.075-0.026-0.162-0.051-0.259-0.074c-0.098-0.023-0.219-0.044-0.363-0.064l-0.813-0.127
		c-0.529-0.079-0.944-0.249-1.245-0.51c-0.366-0.307-0.549-0.735-0.549-1.284c0-0.588,0.192-1.053,0.578-1.396
		c0.385-0.343,0.915-0.515,1.588-0.515c0.431,0,0.798,0.06,1.103,0.178c0.304,0.118,0.606,0.307,0.906,0.567l-0.343,0.343
		c-0.111-0.098-0.222-0.186-0.333-0.265c-0.111-0.078-0.232-0.145-0.362-0.201c-0.131-0.056-0.278-0.1-0.441-0.132
		c-0.164-0.033-0.35-0.049-0.559-0.049c-0.509,0-0.906,0.129-1.19,0.388c-0.284,0.258-0.426,0.61-0.426,1.055
		c0,0.406,0.121,0.71,0.362,0.913c0.124,0.105,0.279,0.195,0.466,0.27c0.186,0.075,0.377,0.129,0.573,0.162l0.754,0.118
		c0.164,0.026,0.307,0.052,0.432,0.079c0.124,0.026,0.233,0.057,0.328,0.093c0.095,0.036,0.181,0.078,0.26,0.127
		c0.078,0.049,0.153,0.103,0.225,0.162c0.189,0.157,0.338,0.352,0.446,0.584c0.108,0.232,0.162,0.489,0.162,0.771
		C274.864,166.329,274.655,166.8,274.237,167.147z"/>
</g>
<path fill-rule="evenodd" clip-rule="evenodd" fill="#FFFFFF" d="M143.082,43.959c1.585,0.964,3.447,1.521,5.438,1.521
	c5.781,0,10.468-4.687,10.468-10.468c0-0.432-0.029-0.856-0.08-1.274c-0.004-0.029-0.007-0.06-0.011-0.088
	c-0.017-0.132-0.037-0.263-0.058-0.393c-0.012-0.072-0.025-0.143-0.038-0.213c-0.017-0.086-0.034-0.172-0.053-0.26
	c-0.022-0.105-0.047-0.211-0.073-0.317c-0.011-0.046-0.023-0.094-0.036-0.14c-0.037-0.139-0.075-0.277-0.118-0.414
	c-0.003-0.01-0.006-0.02-0.009-0.029c-0.717-2.315-2.211-4.28-4.139-5.553c-1.671-1.129-3.686-1.788-5.853-1.788
	c-1.288,0-2.519,0.233-3.659,0.658c-2.411-0.067-4.345-1.078-6.049-3.195c-0.623-0.772-1.355-1.471-2.112-2.117
	c-2.282-1.948-3.027-4.294-2.378-7.264c0.714-3.269-0.998-6.515-3.941-8.03c-2.83-1.457-6.412-0.912-8.716,1.326
	c-2.367,2.299-2.974,5.95-1.472,8.859c1.514,2.936,4.736,4.596,8.04,3.956c2.469-0.479,4.483,0.122,6.2,1.929
	c1.08,1.137,2.177,2.261,3.331,3.321c1.636,1.503,2.322,3.193,2.134,5.089c-1.164,1.687-1.847,3.731-1.847,5.937
	c0,1.814,0.462,3.52,1.274,5.008c-0.091,1.374-0.657,2.614-1.841,3.686c-1.892,1.715-4.079,1.792-6.383,0.866
	c-2.074-0.833-4.166-0.81-6.243,0.02c-4.201,1.675-6.372,6.188-5.056,10.501c1.295,4.247,5.627,6.749,10.109,5.838
	c4.193-0.852,7.136-5.023,6.628-9.392C136.011,47.011,139.008,43.812,143.082,43.959z"/>
<path fill-rule="evenodd" clip-rule="evenodd" fill="#FFFFFF" d="M185.217,62.583c-5.231,0.635-8.248-2.47-7.263-7.163
	c0.754-1.514,1.181-3.22,1.181-5.027c0-1.178-0.18-2.313-0.515-3.38c-0.256-4.981,3.823-8.83,8.957-8.151
	c2.208,0.292,4.093-0.338,5.647-1.898c2.128-2.135,2.467-5.514,0.858-8.079c-1.607-2.567-4.791-3.689-7.654-2.701
	c-3.058,1.055-4.626,3.664-4.328,7.43c0.302,1.654-0.026,3.335-1.283,4.799c-2.131,2.482-4.245,3.193-7.132,2.313
	c-1.706-1.034-3.708-1.63-5.848-1.63c-6.24,0-11.297,5.059-11.297,11.298c0,6.239,5.058,11.297,11.297,11.297
	c1.644,0,3.205-0.354,4.613-0.986c2.791-0.388,4.866,0.597,6.015,2.855c0.881,1.732,0.513,3.416,0.064,5.187
	c-0.865,3.412,0.061,6.388,2.766,8.653c2.563,2.146,5.541,2.598,8.619,1.311c3.152-1.318,4.948-3.775,5.205-7.224
	C195.532,65.945,190.991,61.884,185.217,62.583z"/>
<path fill-rule="evenodd" clip-rule="evenodd" fill="#FFFFFF" d="M157.456,21.319c5.25-1.049,8.393,1.677,7.978,6.92
	c-0.303,3.839,1.487,6.548,4.639,7.021c3.243,0.488,5.994-1.365,6.727-4.529c0.845-3.645-1.914-6.85-6.037-7.016
	c-4.833-0.194-7.658-3.824-6.635-8.527c0.274-1.256,0.524-2.507,0.317-3.81c-0.804-5.067-5.365-8.493-10.311-7.726
	c-5.031,0.781-8.417,5.62-7.474,10.683C147.563,19.186,152.417,22.325,157.456,21.319z"/>
<path fill-rule="evenodd" clip-rule="evenodd" fill="#FFFFFF" d="M157.049,62.496c-2.736,0.172-4.908-0.635-6.341-3.035
	c-1.023-1.713-0.779-3.512-0.391-5.379c0.497-2.384-0.381-4.355-2.373-5.755c-1.959-1.379-4.453-1.342-6.4,0.066
	c-1.996,1.442-2.688,3.435-2.228,5.817c0.48,2.491,2.354,4.045,5.548,4.476c2.902,0.391,4.592,2.093,5.436,4.742
	c0.501,1.574-0.063,3.045-0.597,4.552c-1.99,5.617,1.993,11.347,7.842,11.388c2.564,0.014,4.754-0.901,6.423-2.839
	c2.361-2.741,2.799-5.868,1.372-9.164C163.949,64.152,160.736,62.264,157.049,62.496z"/>
<path fill-rule="evenodd" clip-rule="evenodd" fill="#72A0CC" d="M187.669,18.468c4.085,0.071,7.488-3.311,7.488-7.442
	c-0.002-4.054-3.246-7.354-7.288-7.411c-4.114-0.058-7.477,3.284-7.474,7.427C180.399,15.092,183.637,18.397,187.669,18.468z"/>
<path fill-rule="evenodd" clip-rule="evenodd" fill="#72A0CC" d="M125.713,66.911c-3.477-0.039-6.299,2.679-6.363,6.125
	c-0.064,3.41,2.737,6.273,6.178,6.316c3.469,0.044,6.293-2.681,6.356-6.131C131.947,69.792,129.167,66.948,125.713,66.911z"/>
<path fill-rule="evenodd" clip-rule="evenodd" fill="#72A0CC" d="M130.39,32.279c-0.046-3.001-2.48-5.392-5.478-5.379
	c-2.991,0.014-5.438,2.426-5.483,5.41c-0.048,3.094,2.396,5.557,5.512,5.554C128.063,37.861,130.438,35.429,130.39,32.279z"/>
<path fill-rule="evenodd" clip-rule="evenodd" fill="#72A0CC" d="M184.537,51.98c0.045,2.838,2.405,5.125,5.233,5.069
	c2.81-0.055,5.14-2.466,5.082-5.256c-0.06-2.83-2.406-5.069-5.269-5.028C186.705,46.807,184.49,49.094,184.537,51.98z"/>
<path fill-rule="evenodd" clip-rule="evenodd" fill="#72A0CC" d="M173.371,18.462c2.305,0.007,4.16-1.898,4.135-4.246
	c-0.025-2.346-1.928-4.205-4.237-4.139c-2.234,0.064-4.006,1.881-4.03,4.135C169.214,16.554,171.062,18.458,173.371,18.462z"/>
<path fill-rule="evenodd" clip-rule="evenodd" fill="#72A0CC" d="M140.819,62.675c-1.916-0.027-3.552,1.548-3.608,3.473
	c-0.058,1.993,1.644,3.723,3.624,3.684c1.889-0.038,3.536-1.715,3.529-3.595C144.359,64.34,142.728,62.701,140.819,62.675z"/>
</svg>
